<?xml version="1.0" standalone="no"?>
<!DOCTYPE svg PUBLIC "-//W3C//DTD SVG 20010904//EN"
 "http://www.w3.org/TR/2001/REC-SVG-20010904/DTD/svg10.dtd">
<svg version="1.0" xmlns="http://www.w3.org/2000/svg"
 width="700.000000pt" height="700.000000pt" viewBox="0 0 700.000000 700.000000"
 preserveAspectRatio="xMidYMid meet">
<metadata>
Created by potrace 1.14, written by Peter Selinger 2001-2017
</metadata>
<g transform="translate(0.000000,700.000000) scale(0.100000,-0.100000)"
fill="#000000" stroke="none">
<path d="M5170 6990 c-30 -4 -80 -11 -110 -14 -236 -31 -502 -115 -730 -231
-93 -48 -290 -172 -345 -217 -11 -9 -49 -40 -85 -69 -104 -84 -299 -285 -389
-399 -45 -58 -88 -112 -95 -120 -22 -28 -147 -221 -153 -238 -4 -9 23 5 62 32
75 52 239 149 271 160 29 10 52 32 134 131 231 278 498 480 790 598 84 34 273
89 348 101 127 21 186 26 322 25 284 0 476 -46 676 -161 443 -254 678 -720
678 -1343 0 -97 -12 -273 -18 -284 -2 -3 -7 -31 -10 -62 -15 -126 -83 -331
-152 -458 -72 -131 -197 -276 -313 -365 -30 -23 -100 -68 -155 -102 -56 -33
-100 -65 -99 -71 1 -6 5 -26 8 -43 7 -39 22 -70 35 -70 20 0 169 64 250 107
289 155 503 371 672 678 89 163 160 355 198 537 28 137 31 163 34 353 4 186
-4 278 -40 438 -34 152 -110 328 -201 465 -49 74 -226 266 -289 314 -223 168
-453 260 -757 303 -97 13 -449 17 -537 5z"/>
<path d="M5524 6398 c-11 -13 -50 -61 -86 -108 -106 -137 -188 -204 -341 -279
-86 -43 -90 -46 -146 -130 -137 -204 -447 -718 -566 -936 -20 -38 -41 -74 -45
-80 -4 -5 -27 -46 -51 -90 -221 -408 -296 -551 -467 -895 -184 -368 -220 -444
-310 -640 -19 -41 -45 -98 -58 -126 -149 -323 -426 -1016 -458 -1149 -8 -33
-27 -95 -29 -95 -1 0 -3 48 -3 108 -1 121 -13 474 -19 542 -2 25 -7 106 -10
180 -4 74 -8 151 -10 170 -2 19 -6 82 -10 140 -3 58 -8 112 -10 120 -2 8 -7
56 -10 105 -8 109 -10 131 -30 305 -2 19 -7 62 -10 95 -4 33 -8 71 -10 85 -2
14 -7 48 -10 75 -19 154 -43 297 -90 560 -166 912 -478 1536 -864 1729 -94 47
-162 64 -276 70 -189 10 -392 -60 -578 -200 -76 -57 -236 -217 -298 -299 -245
-320 -430 -742 -513 -1171 -13 -71 -27 -158 -31 -194 -4 -36 -9 -68 -12 -72
-2 -5 2 -8 9 -9 7 -1 25 -2 41 -3 21 -2 27 1 28 18 1 25 3 37 29 179 79 414
290 870 508 1093 192 197 357 257 578 211 226 -48 407 -212 585 -532 170 -304
245 -542 379 -1195 5 -25 12 -56 15 -70 11 -50 54 -297 61 -350 2 -19 6 -42 9
-50 2 -8 7 -35 10 -60 3 -25 8 -61 11 -80 6 -44 10 -75 29 -225 8 -66 17 -131
19 -145 2 -14 7 -61 11 -105 4 -44 9 -89 10 -100 2 -11 6 -56 10 -100 3 -44 7
-93 9 -110 2 -16 7 -79 11 -140 3 -60 8 -126 10 -145 2 -19 7 -93 11 -165 3
-71 7 -157 9 -190 16 -326 24 -697 25 -1234 0 -269 5 -461 10 -472 6 -10 18
-16 29 -14 32 6 231 146 232 164 4 53 6 72 13 126 14 116 117 626 160 795 36
139 69 268 71 280 2 8 31 107 64 220 167 571 396 1172 666 1745 56 119 228
463 260 520 12 22 42 76 65 120 155 292 328 578 674 1118 14 21 31 17 30 -9
-2 -29 -15 -175 -19 -209 -2 -16 -6 -55 -9 -85 -8 -71 -17 -148 -21 -180 -2
-14 -6 -54 -10 -90 -3 -36 -8 -81 -10 -100 -2 -19 -7 -60 -10 -90 -3 -30 -12
-107 -20 -170 -8 -63 -17 -140 -20 -170 -6 -65 -12 -115 -21 -190 -8 -60 -9
-68 -18 -155 -3 -33 -8 -73 -11 -90 -6 -37 -13 -101 -20 -180 -3 -33 -8 -71
-10 -85 -4 -24 -7 -45 -20 -160 -4 -30 -8 -66 -10 -80 -2 -14 -6 -52 -10 -85
-3 -33 -12 -112 -20 -175 -8 -63 -17 -140 -20 -170 -3 -30 -8 -71 -11 -90 -2
-19 -6 -57 -9 -85 -3 -27 -7 -66 -10 -85 -3 -19 -7 -53 -10 -75 -2 -22 -13
-116 -25 -210 -11 -93 -23 -192 -26 -220 -3 -27 -7 -61 -9 -75 -2 -14 -7 -54
-10 -90 -4 -36 -8 -72 -10 -80 -1 -8 -6 -46 -10 -83 -3 -37 -8 -76 -10 -86 -2
-10 -6 -54 -10 -97 -3 -43 -8 -86 -10 -94 -2 -8 -7 -40 -10 -70 -3 -30 -7 -71
-10 -90 -2 -19 -7 -60 -10 -90 -3 -30 -8 -66 -10 -80 -2 -14 -6 -54 -10 -90
-4 -36 -8 -76 -10 -90 -2 -14 -6 -56 -10 -93 -3 -37 -8 -76 -10 -85 -6 -32
-17 -177 -20 -248 -4 -130 58 -259 147 -306 81 -41 168 -26 703 117 154 41
470 119 565 139 l105 22 1 52 c1 33 -3 52 -10 53 -15 1 -54 -1 -91 -6 -294
-38 -465 -25 -553 42 -70 53 -123 155 -137 263 -4 30 -9 66 -11 80 -6 38 -6
302 0 410 13 244 17 299 21 350 3 30 7 87 10 125 18 243 24 325 30 385 3 25 7
81 11 125 3 44 7 94 8 110 2 17 7 68 10 115 4 47 9 101 11 120 2 19 6 69 10
110 3 41 8 96 10 123 8 78 15 144 20 195 2 26 7 81 10 122 3 41 8 86 10 100 2
14 6 59 10 100 3 41 8 91 10 110 4 36 11 110 20 210 3 30 7 75 10 100 3 25 7
69 10 98 3 28 7 76 10 105 3 28 7 75 10 102 3 28 8 70 10 95 2 25 7 69 10 98
3 28 7 75 10 102 3 28 7 71 10 98 3 26 7 71 10 99 3 29 7 67 9 85 2 18 7 65
11 103 4 39 8 81 10 95 2 14 7 52 10 85 4 33 17 125 30 205 31 186 34 206 46
260 6 25 13 55 15 68 10 55 14 75 43 200 17 74 53 222 81 329 27 107 50 207
50 222 0 34 -37 71 -71 71 -14 0 -34 -10 -45 -22z"/>
<path d="M2193 2547 c-59 -48 -70 -71 -112 -222 -132 -476 -350 -1007 -546
-1330 -234 -387 -503 -618 -716 -617 -127 0 -262 109 -347 277 -33 67 -57 140
-96 298 -41 164 -56 193 -107 200 -41 7 -77 -13 -125 -66 -54 -59 -94 -142
-123 -249 -25 -91 -23 -267 4 -373 36 -141 119 -282 211 -356 22 -18 73 -48
114 -68 74 -35 77 -36 200 -36 131 0 209 16 320 68 203 94 437 318 606 580 26
40 60 91 75 115 16 24 29 45 29 48 0 2 11 22 25 44 90 142 267 532 378 830 98
265 277 837 277 887 0 20 -11 15 -67 -30z"/>
</g>
</svg>
