<svg width="34" height="24" viewBox="0 0 34 24" fill="none" xmlns="http://www.w3.org/2000/svg">
<path d="M28.4876 2.02697C28.4782 2.01 28.4628 1.99671 28.4439 1.98947C26.2654 1.05243 23.9665 0.384243 21.6047 0.00163895C21.5832 -0.00210093 21.5611 0.000597065 21.5413 0.00934923C21.5216 0.0181014 21.5053 0.0324621 21.4948 0.0503891C21.1818 0.583045 20.8976 1.13017 20.6434 1.68968C18.0975 1.32737 15.5078 1.32737 12.9619 1.68968C12.706 1.12875 12.4172 0.581488 12.097 0.0503891C12.086 0.0328517 12.0697 0.0188217 12.05 0.0101264C12.0304 0.0014311 12.0085 -0.0015265 11.9871 0.00163895C9.62498 0.38344 7.32592 1.05167 5.14772 1.98952C5.12908 1.99693 5.11334 2.00958 5.1027 2.02573C0.746738 8.12422 -0.446524 14.0728 0.13885 19.9476C0.140496 19.962 0.145215 19.976 0.152725 19.9886C0.160235 20.0013 0.170382 20.0124 0.182564 20.0213C2.719 21.7819 5.55603 23.1259 8.57259 23.9957C8.59384 24.0017 8.61652 24.0014 8.6376 23.9949C8.65867 23.9885 8.67713 23.9761 8.69048 23.9595C9.33837 23.133 9.91245 22.2579 10.4069 21.3429C10.4137 21.3304 10.4176 21.3166 10.4183 21.3026C10.419 21.2885 10.4165 21.2745 10.411 21.2614C10.4055 21.2483 10.3971 21.2364 10.3863 21.2266C10.3756 21.2167 10.3628 21.2091 10.3487 21.2043C9.44337 20.8796 8.56695 20.4881 7.72762 20.0336C7.71237 20.0252 7.69957 20.0134 7.69033 19.9993C7.6811 19.9851 7.67573 19.9691 7.67468 19.9525C7.67364 19.936 7.67695 19.9194 7.68434 19.9044C7.69173 19.8893 7.70296 19.8762 7.71705 19.8661C7.89316 19.7424 8.06939 19.6138 8.23756 19.4838C8.2525 19.4723 8.27058 19.4649 8.28977 19.4624C8.30895 19.46 8.32847 19.4627 8.34614 19.4701C13.845 21.8228 19.7982 21.8228 25.2319 19.4701C25.2496 19.4622 25.2693 19.4592 25.2888 19.4614C25.3083 19.4636 25.3267 19.4709 25.3418 19.4826C25.5101 19.6125 25.6863 19.7424 25.8637 19.8661C25.8778 19.8761 25.8892 19.8891 25.8967 19.9041C25.9042 19.9191 25.9076 19.9356 25.9067 19.9522C25.9058 19.9687 25.9006 19.9848 25.8914 19.999C25.8823 20.0132 25.8696 20.0251 25.8544 20.0336C25.017 20.4919 24.1398 20.8832 23.2321 21.2031C23.218 21.2081 23.2052 21.2159 23.1946 21.2259C23.1839 21.2358 23.1756 21.2478 23.1702 21.261C23.1648 21.2742 23.1624 21.2884 23.1633 21.3025C23.1641 21.3166 23.1681 21.3304 23.175 21.3429C23.6777 22.2528 24.2509 23.1268 24.8901 23.958C24.9031 23.9751 24.9214 23.9879 24.9426 23.9946C24.9637 24.0014 24.9866 24.0017 25.008 23.9955C28.0299 23.1287 30.8719 21.7846 33.4115 20.0213C33.4239 20.0128 33.4342 20.002 33.4417 19.9895C33.4493 19.977 33.4539 19.9632 33.4553 19.9489C34.1561 13.1569 32.282 7.25711 28.4876 2.02697ZM11.2281 16.3704C9.57254 16.3704 8.20842 14.9461 8.20842 13.1969C8.20842 11.4477 9.54608 10.0233 11.2281 10.0233C12.9232 10.0233 14.2742 11.4601 14.2477 13.1968C14.2477 14.9461 12.91 16.3704 11.2281 16.3704ZM22.3927 16.3704C20.7372 16.3704 19.3731 14.9461 19.3731 13.1969C19.3731 11.4477 20.7107 10.0233 22.3927 10.0233C24.088 10.0233 25.4388 11.4601 25.4124 13.1968C25.4124 14.9461 24.088 16.3704 22.3927 16.3704Z" fill="#EA4200"/>
</svg>
