<svg width="86" height="51" viewBox="0 0 86 51" fill="none" xmlns="http://www.w3.org/2000/svg">
<path fill-rule="evenodd" clip-rule="evenodd" d="M64.6247 0.0168702C60.8031 0.176761 57.3943 0.679505 54.2284 1.55016C49.4794 2.85617 45.2865 4.99562 41.7388 7.92313C41.0132 8.52185 39.9369 9.53554 39.9831 9.57653C39.9913 9.58379 40.2867 9.46612 40.6395 9.31501C41.7431 8.84231 42.5384 8.5552 43.9052 8.13602C44.2945 8.01662 44.6839 7.88308 44.7704 7.83925C44.857 7.79545 45.1926 7.56189 45.5164 7.32026C49.1063 4.64056 53.5928 2.86592 58.545 2.16677C61.8655 1.69796 65.4361 1.67814 68.3749 2.11217C72.2751 2.68817 75.5568 4.14332 77.6747 6.23586C78.9252 7.47136 79.7384 8.85657 80.1375 10.4308C80.5028 11.8723 80.5021 13.5985 80.1354 15.0686C79.4304 17.8954 77.3393 20.0535 73.8999 21.5043C73.2918 21.7608 72.7324 21.9619 71.8939 22.2252C71.5215 22.3422 71.204 22.4558 71.1885 22.4776C71.1596 22.5182 71.4204 23.183 71.5165 23.3139C71.6081 23.4387 71.9293 23.3923 73.2068 23.07C75.8477 22.4037 78.0364 21.5057 79.9036 20.3224C82.5997 18.6137 84.7032 16.152 85.5347 13.7325C86.1491 11.9444 86.1552 9.9989 85.552 8.27199C84.7901 6.09055 82.9872 4.2149 80.2277 2.73273C79.4058 2.29127 78.2344 1.79034 77.263 1.46491C74.9323 0.684044 72.4059 0.236372 69.2339 0.0421084C68.5775 0.00190881 65.3984 -0.015512 64.6247 0.0168702ZM68.0843 4.24521C67.887 4.3124 67.7783 4.39017 67.2845 4.81693C65.8528 6.05436 64.41 6.75951 62.0474 7.37644L61.5353 7.51019L60.8414 8.13382C53.2342 14.9711 43.4779 26.1887 38.5801 33.7298C37.779 34.9633 36.9348 36.4147 36.5665 37.1917C36.473 37.3892 36.3922 37.5471 36.3871 37.5426C36.382 37.5381 36.3916 37.482 36.4083 37.4181C36.5087 37.0343 36.3008 33.5835 36.0089 30.7873C35.3701 24.6699 34.1444 19.6086 32.3611 15.7242C29.7191 9.96956 25.8876 6.79066 20.9109 6.22415C19.5463 6.06883 18.0107 6.12613 16.5664 6.38627C14.1149 6.82782 11.7108 7.85037 9.52808 9.37992C6.09891 11.783 3.49571 15.2841 2.49297 18.8416C2.37065 19.2755 2.20415 20.0141 2.16953 20.2762L2.15984 20.3494L2.6059 20.3575L3.05196 20.3655L3.16219 19.889C3.78373 17.2024 5.57616 14.3182 7.8889 12.2831C8.92759 11.3691 9.87832 10.7382 10.985 10.2282C12.8152 9.38499 14.5333 9.13668 16.6981 9.40253C18.6426 9.64135 20.3752 10.3029 21.8709 11.3775C22.3448 11.718 23.2174 12.4894 23.6059 12.9112C23.7682 13.0875 23.9832 13.3115 24.0836 13.4089C24.2465 13.5671 24.4075 13.75 25.0769 14.5376C25.3687 14.8809 25.8753 15.636 26.2654 16.309C26.8114 17.2508 26.8737 17.3851 27.5571 19.0905C30.1673 25.6044 31.3902 31.9391 31.7482 40.8006C31.8413 43.1049 31.884 47.2392 31.8272 48.4423C31.792 49.1872 31.8745 49.3792 32.2294 49.3792C32.425 49.3792 32.5614 49.3318 33.5162 48.9317C34.0199 48.7206 34.8934 48.3798 35.0939 48.3161C35.1297 48.3048 35.1521 48.2667 35.1528 48.2163C35.159 47.7601 35.2629 47.3153 35.7016 45.8658C38.1111 37.9051 42.8892 29.7705 49.7524 21.9451C52.378 18.9513 54.9987 16.3 58.3178 13.2795C59.7226 12.0012 59.5834 12.1131 59.6944 12.1725C59.7437 12.1988 59.7884 12.2448 59.7937 12.2746C59.8126 12.3813 59.0971 16.2719 58.4164 19.7639C58.363 20.0376 58.2578 20.5778 58.1826 20.9643C58.0292 21.7528 57.996 21.922 57.8335 22.743C57.5531 24.1591 57.4802 24.5279 57.4181 24.8437C57.3816 25.0289 57.136 26.2608 56.8723 27.5813C56.6085 28.9017 56.3501 30.1995 56.2979 30.4652C56.2456 30.7309 56.1197 31.3633 56.0179 31.8706C55.6492 33.7085 55.4326 34.7917 55.3564 35.1791C55.3136 35.3965 55.2245 35.8444 55.1583 36.1745C55.0921 36.5047 55.0029 36.9526 54.96 37.17C54.9172 37.3874 54.8206 37.8749 54.7455 38.2533C54.1405 41.3008 53.5497 44.3879 53.3272 45.6648C53.1235 46.8337 53.0779 47.2411 53.1234 47.485C53.1738 47.7557 53.3448 48.1517 53.5051 48.3691C53.6839 48.6116 54.1251 48.991 54.3824 49.1236C54.6563 49.2647 55.043 49.3969 55.3666 49.4601C55.7131 49.5278 56.511 49.5266 57.0582 49.4575C57.9578 49.3441 59.3459 49.1448 60.5606 48.9546C64.2783 48.3726 65.1637 48.235 66.4915 48.033C68.6166 47.7096 70.1782 47.4963 71.1008 47.4034C71.3461 47.3787 71.61 47.3512 71.6873 47.3423L71.8277 47.3261V46.918C71.8277 46.5488 71.8222 46.5099 71.7699 46.51C71.738 46.51 71.3626 46.5358 70.9356 46.5672C68.3277 46.7593 66.7889 46.8126 65.8637 46.743C63.7083 46.5809 62.5682 45.8805 62.1108 44.4375C61.9589 43.9583 61.9129 43.6061 61.8928 42.7705C61.8732 41.9556 61.8915 41.5805 62.0169 40.2296C62.1237 39.079 62.3529 37.1391 62.5617 35.6183C62.7568 34.1978 62.9115 33.0936 62.9554 32.8075C62.9813 32.6384 63.0412 32.2366 63.0885 31.9145C63.2177 31.0335 63.5127 29.107 63.6825 28.0351C63.7655 27.5117 63.8622 26.8991 63.8974 26.6736C63.9749 26.1781 64.38 23.6956 64.5423 22.721C64.6067 22.3345 64.6733 21.9327 64.6904 21.828C64.7892 21.2222 65.2019 18.7896 65.418 17.5387C65.5098 17.0073 65.6146 16.3946 65.6508 16.1772C65.687 15.9598 65.7387 15.6766 65.7656 15.5477C65.7926 15.4189 65.8595 15.05 65.9144 14.7279C66.3225 12.3322 67.3421 9.31644 68.9747 5.67553C69.2967 4.95723 69.3544 4.80501 69.3364 4.71996C69.3056 4.57488 69.0883 4.36961 68.8821 4.29103C68.662 4.20709 68.2634 4.18419 68.0843 4.24521ZM27.2548 32.3009C27.0095 32.4224 26.6601 32.5991 26.4783 32.6934L26.1479 32.865L26.0518 33.0778C25.3966 34.529 24.292 36.585 23.4206 37.9752C21.2216 41.4836 18.701 44.2655 16.0917 46.0638C14.2762 47.3151 12.4745 48.0429 10.7341 48.2282C9.73228 48.3348 8.79697 48.189 7.88909 47.7846C7.26187 47.5052 6.76469 47.1795 6.2699 46.7239C5.57395 46.083 5.15181 45.4233 4.71877 44.2996C4.26062 43.1107 4.06244 42.8072 3.63187 42.6351C3.41737 42.5494 2.97464 42.5527 2.63894 42.6427C1.58866 42.9241 0.59705 43.9119 0.167643 45.1045C0.0249043 45.501 -0.016728 45.8014 0.00570717 46.2723C0.107805 48.4149 1.9079 50.1982 4.56344 50.7876C5.33522 50.9589 5.76083 51.0001 6.7526 51C7.68401 50.9998 8.24029 50.9602 8.9933 50.8404C11.7308 50.4047 14.299 49.2537 16.8399 47.3239C18.857 45.7919 20.8796 43.6698 22.7011 41.1745C24.4596 38.7654 26.2455 35.6586 27.6002 32.6519C27.8114 32.1833 27.8389 32.0728 27.7432 32.0777C27.7199 32.0789 27.5001 32.1793 27.2548 32.3009Z" fill="white"/>
</svg>
