<svg width="94" height="44" viewBox="0 0 94 44" fill="none" xmlns="http://www.w3.org/2000/svg">
<g clip-path="url(#clip0_91_3)">
<path fill-rule="evenodd" clip-rule="evenodd" d="M53.3529 0.0138931C50.1979 0.145568 47.3836 0.559593 44.7699 1.27661C40.8493 2.35214 37.3877 4.11404 34.4588 6.52493C33.8597 7.01799 32.9711 7.8528 33.0093 7.88655C33.0161 7.89253 33.2599 7.79563 33.5512 7.67119C34.4623 7.2819 35.1189 7.04546 36.2473 6.70025C36.5687 6.60192 36.8902 6.49195 36.9616 6.45585C37.0331 6.41978 37.3102 6.22744 37.5775 6.02845C40.5412 3.82164 44.2452 2.36017 48.3337 1.7844C51.075 1.39832 54.0228 1.382 56.449 1.73943C59.669 2.21379 62.3783 3.41214 64.1268 5.13542C65.1592 6.15289 65.8306 7.29364 66.16 8.59006C66.4617 9.77716 66.461 11.1988 66.1583 12.4095C65.5762 14.7374 63.8499 16.5147 61.0104 17.7094C60.5083 17.9207 60.0465 18.0862 59.3543 18.3031C59.0468 18.3995 58.7847 18.493 58.7719 18.511C58.748 18.5444 58.9633 19.0919 59.0427 19.1997C59.1183 19.3024 59.3835 19.2643 60.4382 18.9988C62.6184 18.4501 64.4254 17.7106 65.9669 16.7361C68.1928 15.3289 69.9294 13.3016 70.6158 11.3091C71.1231 9.8366 71.1282 8.23439 70.6302 6.81223C70.0011 5.01575 68.5127 3.4711 66.2345 2.25048C65.556 1.88693 64.5889 1.4744 63.7869 1.20639C61.8627 0.56333 59.777 0.19466 57.1582 0.0346775C56.6163 0.00157198 53.9917 -0.0127746 53.3529 0.0138931ZM56.2092 3.49605C56.0463 3.55139 55.9565 3.61543 55.5488 3.96688C54.3669 4.98595 53.1757 5.56666 51.2252 6.07472L50.8024 6.18486L50.2295 6.69844C43.9491 12.3291 35.8946 21.5672 31.851 27.7775C31.1896 28.7933 30.4927 29.9885 30.1887 30.6285C30.1114 30.7911 30.0447 30.9211 30.0405 30.9174C30.0363 30.9137 30.0442 30.8675 30.058 30.8149C30.1409 30.4988 29.9693 27.657 29.7282 25.3542C29.2009 20.3164 28.189 16.1483 26.7167 12.9493C24.5355 8.21023 21.3723 5.59231 17.2636 5.12577C16.1371 4.99786 14.8693 5.04504 13.6769 5.25928C11.653 5.62291 9.66819 6.46501 7.86621 7.72464C5.03515 9.70362 2.88599 12.5869 2.05815 15.5166C1.95716 15.874 1.81971 16.4822 1.79112 16.6981L1.78313 16.7584L2.15138 16.765L2.51964 16.7716L2.61064 16.3792C3.12378 14.1667 4.60358 11.7915 6.51293 10.1155C7.37045 9.36282 8.15536 8.84319 9.06905 8.42326C10.58 7.72881 11.9984 7.52432 13.7856 7.74326C15.3909 7.93994 16.8214 8.48472 18.0562 9.36972C18.4474 9.65009 19.1679 10.2854 19.4886 10.6327C19.6226 10.7779 19.8001 10.9624 19.883 11.0426C20.0174 11.1729 20.1504 11.3235 20.703 11.9722C20.9439 12.2549 21.3622 12.8767 21.6842 13.4309C22.135 14.2065 22.1865 14.3171 22.7506 15.7215C24.9056 21.0859 25.9152 26.3028 26.2107 33.6005C26.2876 35.4981 26.3228 38.9028 26.2759 39.8937C26.2469 40.5071 26.315 40.6652 26.608 40.6652C26.7694 40.6652 26.8821 40.6262 27.6703 40.2967C28.0862 40.1228 28.8073 39.8422 28.9729 39.7897C29.0024 39.7804 29.0209 39.7491 29.0215 39.7075C29.0267 39.3318 29.1124 38.9656 29.4746 37.7718C31.4638 31.216 35.4086 24.5169 41.0746 18.0725C43.2423 15.607 45.4059 13.4235 48.1461 10.9361C49.3059 9.8833 49.1909 9.97548 49.2826 10.0244C49.3233 10.0461 49.3602 10.084 49.3646 10.1085C49.3802 10.1964 48.7895 13.4004 48.2275 16.2761C48.1834 16.5016 48.0966 16.9464 48.0345 17.2647C47.9078 17.9141 47.8804 18.0535 47.7462 18.7295C47.5148 19.8958 47.4546 20.1995 47.4033 20.4595C47.3732 20.612 47.1704 21.6265 46.9527 22.714C46.735 23.8014 46.5216 24.8702 46.4785 25.089C46.4354 25.3078 46.3314 25.8286 46.2474 26.2464C45.9429 27.76 45.7642 28.652 45.7012 28.971C45.6659 29.15 45.5923 29.5189 45.5377 29.7908C45.483 30.0627 45.4094 30.4316 45.374 30.6106C45.3386 30.7896 45.2589 31.1911 45.1969 31.5027C44.6974 34.0124 44.2097 36.5548 44.026 37.6063C43.8578 38.5689 43.8201 38.9045 43.8577 39.1053C43.8993 39.3282 44.0405 39.6544 44.1728 39.8334C44.3204 40.0331 44.6847 40.3455 44.8971 40.4547C45.1232 40.5709 45.4425 40.6798 45.7096 40.7318C45.9957 40.7876 46.6545 40.7866 47.1062 40.7297C47.8489 40.6363 48.9949 40.4722 49.9977 40.3156C53.067 39.8363 53.7979 39.723 54.8941 39.5566C56.6486 39.2903 57.9378 39.1146 58.6995 39.0381C58.902 39.0178 59.1199 38.9951 59.1837 38.9878L59.2996 38.9744V38.6384C59.2996 38.3343 59.295 38.3023 59.2519 38.3024C59.2256 38.3024 58.9157 38.3236 58.5631 38.3495C56.4101 38.5076 55.1396 38.5515 54.3759 38.4942C52.5964 38.3607 51.6551 37.7839 51.2775 36.5956C51.1521 36.2009 51.1141 35.9109 51.0975 35.2227C51.0813 34.5517 51.0965 34.2428 51.2 33.1303C51.2882 32.1827 51.4774 30.5851 51.6498 29.3327C51.8109 28.1629 51.9385 27.2535 51.9748 27.0179C51.9962 26.8787 52.0457 26.5478 52.0847 26.2825C52.1913 25.557 52.4349 23.9705 52.5751 23.0877C52.6436 22.6567 52.7234 22.1522 52.7525 21.9665C52.8165 21.5584 53.1509 19.5141 53.2849 18.7114C53.3381 18.3931 53.3931 18.0622 53.4072 17.976C53.4888 17.4771 53.8294 15.4738 54.0079 14.4436C54.0837 14.006 54.1702 13.5015 54.2001 13.3224C54.23 13.1434 54.2726 12.9101 54.2949 12.804C54.3171 12.6979 54.3724 12.3941 54.4177 12.1289C54.7546 10.1559 55.5963 7.67237 56.9442 4.67396C57.2101 4.08243 57.2577 3.95707 57.2428 3.88703C57.2174 3.76755 57.038 3.5985 56.8678 3.53379C56.686 3.46466 56.357 3.4458 56.2092 3.49605ZM22.5011 26.6007C22.2985 26.7008 22.01 26.8463 21.86 26.924L21.5872 27.0653L21.5079 27.2405C20.967 28.4356 20.055 30.1288 19.3356 31.2737C17.5202 34.163 15.4392 36.454 13.285 37.9349C11.7861 38.9654 10.2987 39.5648 8.86187 39.7173C8.03479 39.8052 7.26262 39.685 6.51309 39.352C5.99526 39.1219 5.58481 38.8537 5.17631 38.4785C4.60175 37.9507 4.25324 37.4074 3.89573 36.4821C3.51749 35.5029 3.35387 35.253 2.99841 35.1113C2.82132 35.0407 2.45581 35.0434 2.17866 35.1175C1.31156 35.3492 0.492913 36.1627 0.138403 37.1449C0.0205605 37.4714 -0.0138103 37.7188 0.00471173 38.1066C0.0890019 39.8711 1.57513 41.3397 3.76749 41.8251C4.40466 41.9661 4.75603 42.0001 5.57482 42C6.34377 41.9999 6.80303 41.9672 7.4247 41.8685C9.68469 41.5098 11.805 40.5619 13.9027 38.9726C15.568 37.711 17.2378 35.9634 18.7416 33.9084C20.1934 31.9244 21.6678 29.3659 22.7862 26.8898C22.9605 26.5039 22.9833 26.4129 22.9043 26.4169C22.8851 26.4179 22.7036 26.5006 22.5011 26.6007Z" fill="white"/>
</g>
<path d="M73.448 36.36C74.2693 36.36 74.856 36.5093 75.208 36.808C75.56 37.1067 75.736 37.56 75.736 38.168C75.736 38.5253 75.648 38.8453 75.472 39.128C75.296 39.4053 75.0293 39.624 74.672 39.784C74.3147 39.944 73.8773 40.024 73.36 40.024H73.024V40.728C73.024 40.9413 73.048 41.1013 73.096 41.208C73.144 41.3147 73.2267 41.3893 73.344 41.432C73.4667 41.4693 73.6507 41.488 73.896 41.488C73.896 41.584 73.88 41.6773 73.848 41.768C73.816 41.8587 73.7733 41.936 73.72 42H71.392C71.3333 41.936 71.288 41.8587 71.256 41.768C71.224 41.6773 71.208 41.584 71.208 41.488C71.3893 41.488 71.5173 41.4587 71.592 41.4C71.672 41.336 71.712 41.232 71.712 41.088V37.328C71.712 37.1787 71.672 37.0747 71.592 37.016C71.5173 36.952 71.3893 36.92 71.208 36.92C71.208 36.7387 71.2667 36.5707 71.384 36.416C71.7413 36.416 72.2267 36.4027 72.84 36.376C73.1493 36.3653 73.352 36.36 73.448 36.36ZM74.344 38.144C74.344 37.8027 74.264 37.5253 74.104 37.312C73.9493 37.0987 73.688 36.992 73.32 36.992C73.2027 36.992 73.104 37.0027 73.024 37.024V39.368C73.072 39.3787 73.1413 39.384 73.232 39.384C73.6747 39.384 73.9707 39.2667 74.12 39.032C74.2693 38.7973 74.344 38.5013 74.344 38.144ZM80.3363 40.768C80.3949 40.9707 80.4696 41.1227 80.5603 41.224C80.6563 41.32 80.7789 41.3787 80.9283 41.4V41.8C80.8056 41.9707 80.5736 42.056 80.2323 42.056C79.9123 42.056 79.6589 42.0027 79.4723 41.896C79.2909 41.7893 79.1549 41.6507 79.0643 41.48C78.9789 41.304 78.8989 41.0747 78.8243 40.792C78.7443 40.4773 78.6589 40.216 78.5683 40.008C78.4776 39.8 78.3603 39.672 78.2163 39.624H77.6883V41.088C77.6883 41.2267 77.7389 41.3307 77.8403 41.4C77.9416 41.464 78.0749 41.496 78.2403 41.496C78.2403 41.688 78.1816 41.856 78.0643 42H76.0563C75.9336 41.8507 75.8723 41.6827 75.8723 41.496C76.0536 41.496 76.1843 41.464 76.2643 41.4C76.3496 41.336 76.3923 41.232 76.3923 41.088V37.328C76.3923 37.184 76.3496 37.08 76.2643 37.016C76.1789 36.952 76.0456 36.92 75.8643 36.92C75.8643 36.7067 75.9176 36.5387 76.0243 36.416C76.3763 36.416 76.7709 36.4053 77.2083 36.384C77.5923 36.3627 77.8936 36.352 78.1123 36.352C79.6376 36.352 80.4003 36.8667 80.4003 37.896C80.4003 38.68 79.9843 39.1573 79.1523 39.328C79.3923 39.3973 79.6216 39.5653 79.8403 39.832C80.0589 40.0933 80.2243 40.4053 80.3363 40.768ZM78.0403 39.072C78.3603 39.072 78.6109 38.9733 78.7923 38.776C78.9736 38.5733 79.0643 38.3067 79.0643 37.976C79.0643 37.6347 78.9843 37.3813 78.8243 37.216C78.6696 37.0453 78.4216 36.96 78.0803 36.96C77.8989 36.96 77.7683 36.9707 77.6883 36.992V39.056C77.7843 39.0667 77.9016 39.072 78.0403 39.072ZM83.3986 42.104C82.8866 42.104 82.4439 41.9867 82.0706 41.752C81.7026 41.512 81.4199 41.1733 81.2226 40.736C81.0252 40.2987 80.9266 39.792 80.9266 39.216C80.9266 38.6133 81.0279 38.096 81.2306 37.664C81.4332 37.2267 81.7186 36.8933 82.0866 36.664C82.4599 36.4347 82.8946 36.32 83.3906 36.32C83.9026 36.32 84.3452 36.44 84.7186 36.68C85.0919 36.92 85.3772 37.2587 85.5746 37.696C85.7772 38.128 85.8786 38.6347 85.8786 39.216C85.8786 39.8133 85.7746 40.3307 85.5666 40.768C85.3639 41.2 85.0759 41.5307 84.7026 41.76C84.3292 41.9893 83.8946 42.104 83.3986 42.104ZM83.3986 41.52C83.6919 41.52 83.9292 41.352 84.1106 41.016C84.2972 40.68 84.3906 40.0693 84.3906 39.184C84.3906 38.3413 84.3052 37.752 84.1346 37.416C83.9639 37.08 83.7239 36.912 83.4146 36.912C83.1212 36.912 82.8812 37.08 82.6946 37.416C82.5132 37.752 82.4226 38.36 82.4226 39.24C82.4226 40.0827 82.5079 40.6747 82.6786 41.016C82.8546 41.352 83.0946 41.52 83.3986 41.52ZM88.4141 42.088C88.2915 42.088 88.1421 42.08 87.9661 42.064C87.3955 42.0213 86.8941 42 86.4621 42C86.3448 41.8507 86.2861 41.68 86.2861 41.488C86.4621 41.488 86.5875 41.4587 86.6621 41.4C86.7421 41.336 86.7821 41.2293 86.7821 41.08V37.32C86.7821 37.176 86.7421 37.0747 86.6621 37.016C86.5875 36.952 86.4621 36.92 86.2861 36.92C86.2861 36.7173 86.3448 36.5493 86.4621 36.416C86.8675 36.416 87.2328 36.4053 87.5581 36.384C87.8835 36.3627 88.0755 36.3493 88.1341 36.344C88.3155 36.328 88.4461 36.32 88.5261 36.32C89.1181 36.32 89.6141 36.4427 90.0141 36.688C90.4195 36.9333 90.7181 37.2667 90.9101 37.688C91.1075 38.104 91.2061 38.5707 91.2061 39.088C91.2061 39.6587 91.1048 40.1707 90.9021 40.624C90.7048 41.072 90.3981 41.4293 89.9821 41.696C89.5661 41.9573 89.0435 42.088 88.4141 42.088ZM88.3501 41.424C88.8088 41.424 89.1608 41.2507 89.4061 40.904C89.6568 40.552 89.7821 39.9867 89.7821 39.208C89.7821 38.456 89.6488 37.8933 89.3821 37.52C89.1208 37.1467 88.7555 36.96 88.2861 36.96C88.1955 36.96 88.1315 36.9653 88.0941 36.976V41.408C88.1475 41.4187 88.2328 41.424 88.3501 41.424ZM93.0277 41.312C93.0277 41.5467 92.953 41.7387 92.8037 41.888C92.6544 42.032 92.4597 42.104 92.2197 42.104C91.9744 42.104 91.777 42.032 91.6277 41.888C91.4784 41.7387 91.4037 41.5467 91.4037 41.312C91.4037 41.072 91.4784 40.88 91.6277 40.736C91.777 40.592 91.9744 40.52 92.2197 40.52C92.4597 40.52 92.6544 40.592 92.8037 40.736C92.953 40.88 93.0277 41.072 93.0277 41.312Z" fill="white"/>
<defs>
<clipPath id="clip0_91_3">
<rect width="71" height="42" fill="white"/>
</clipPath>
</defs>
</svg>
