<svg width="24" height="16" viewBox="0 0 24 16" fill="none" xmlns="http://www.w3.org/2000/svg">
<path d="M9.79119 10.1335L13.1251 5.23799L15.3604 7.99958L12.4432 12.393C12.3295 12.5743 12.0264 13.1462 11.7612 13.732C11.0793 15.6149 12.7463 15.8799 13.3903 15.9078H22.3692C22.8743 15.9217 23.9604 15.5312 23.9983 14.1922C24.0381 12.7834 23.3921 12.2257 22.4828 12.142C20.8032 12.1559 17.3834 12.1754 17.141 12.142C16.8985 12.1085 16.9389 11.9607 16.9894 11.8909C17.4693 11.2772 18.573 9.83228 19.1489 8.96196C19.7248 8.09164 19.1868 6.98142 18.8458 6.5351L16.8758 4.06641V3.85719H22.6344C23.089 3.85719 23.8467 3.5643 23.9225 2.14166C23.9913 0.850484 23.1648 0.133229 22.5207 0.133229C19.654 0.133229 13.7464 0.0997554 13.0493 0.133229C12.3523 0.166703 11.8244 0.788759 11.6476 1.0956L8.23789 6.11668L4.33568 1.84876C4.0326 1.51402 3.33551 0.777596 2.97181 0.509806C1.22907 -0.870983 0.019803 0.886376 0.0167348 1.84876C0.00410633 5.80983 -0.0135736 13.8742 0.0167348 14.4433C0.0546203 15.1546 0.547132 15.9496 1.45638 15.9915C3.21427 16.1254 3.70426 14.6525 3.72951 13.8993V7.12089C3.72951 6.8531 3.83054 6.84194 3.88105 6.86984C4.42408 7.48352 5.81322 9.04564 7.02555 10.3846C8.32881 11.6566 9.41234 10.7472 9.79119 10.1335Z" fill="white"/>
</svg>
