<svg width="29" height="24" viewBox="0 0 29 24" fill="none" xmlns="http://www.w3.org/2000/svg">
<path d="M25.8397 5.98123C25.8579 6.24372 25.8579 6.50626 25.8579 6.76875C25.8579 14.775 19.9189 24 9.06399 24C5.7198 24 2.61322 23.0062 0 21.2813C0.475146 21.3375 0.931954 21.3563 1.42538 21.3563C4.18474 21.3563 6.72488 20.4 8.75332 18.7688C6.15839 18.7125 3.98375 16.9688 3.2345 14.5687C3.60001 14.625 3.96547 14.6625 4.34927 14.6625C4.8792 14.6625 5.40919 14.5874 5.90256 14.4563C3.19799 13.8937 1.1695 11.4562 1.1695 8.51249V8.43752C1.95526 8.88752 2.86904 9.16877 3.8375 9.20622C2.24765 8.1187 1.20606 6.26247 1.20606 4.16246C1.20606 3.03748 1.49839 2.00623 2.0101 1.10622C4.91571 4.78122 9.28325 7.18118 14.1807 7.44372C14.0893 6.99372 14.0345 6.52502 14.0345 6.05626C14.0345 2.71872 16.666 0 19.937 0C21.6365 0 23.1715 0.731248 24.2498 1.9125C25.5837 1.65001 26.8629 1.14374 27.996 0.450003C27.5573 1.85628 26.6254 3.03754 25.401 3.78748C26.5889 3.6563 27.7401 3.31872 28.8 2.85002C27.9961 4.04997 26.9909 5.11868 25.8397 5.98123V5.98123Z" fill="#EA4200"/>
</svg>
